<svg width="47" height="53" viewBox="0 0 47 53" fill="none" xmlns="http://www.w3.org/2000/svg">
<path d="M25.512 5.6897L41.064 45.7537C41.6613 47.2897 42.3227 48.3564 43.048 48.9537C43.816 49.5084 44.4987 49.807 45.096 49.8497V51.1297C43.816 51.0444 42.3013 51.0017 40.552 51.0017C38.8453 50.959 37.1173 50.9377 35.368 50.9377C33.4053 50.9377 31.5493 50.959 29.8 51.0017C28.0507 51.0017 26.664 50.9147 25.64 51V49.8497C27.816 49.7644 29.1813 49.4017 29.736 48.7617C30.3333 48.079 30.2053 46.6497 29.352 44.4737L18.472 14.7137L19.624 13.0497L9.896 38.3937C8.95733 40.7404 8.38133 42.6604 8.168 44.1537C7.99733 45.647 8.104 46.799 8.488 47.6097C8.91467 48.4204 9.576 48.9964 10.472 49.3377C11.4107 49.6364 12.52 49.807 13.8 49.8497V51.1297C12.392 51.0444 11.048 51.0017 9.768 51.0017C8.488 50.959 7.18667 50.9377 5.864 50.9377C4.92533 50.9377 4.02933 50.959 3.176 51.0017C2.36533 51.0017 1.64 51.0444 1 51.1297V49.8497C1.896 49.679 2.81333 49.103 3.752 48.1217C4.69067 47.1404 5.608 45.4764 6.504 43.1297L21.096 5.6897C21.7787 5.73236 22.504 5.7537 23.272 5.7537C24.0827 5.7537 24.8293 5.73236 25.512 5.6897ZM29.992 32.6977V33.9777H10.92L11.56 32.6977H29.992Z" fill="#2D2525"/>
<path d="M24.6396 48.8884L25.6006 48.8503C26.6499 48.8092 27.4548 48.7028 28.0391 48.5476C28.6441 48.3869 28.8957 48.2048 28.9805 48.1072L28.9834 48.1033C29.0209 48.0604 29.1452 47.8632 29.0918 47.2664C29.0398 46.6867 28.8316 45.886 28.4209 44.8386L28.4131 44.8171L24.8154 34.9773H12.2783L10.8291 38.7517L10.8242 38.7654C9.89832 41.0802 9.35529 42.9154 9.1582 44.2947C9.00236 45.6841 9.12434 46.6025 9.38379 47.1638C9.68805 47.7313 10.1456 48.1367 10.8057 48.3933C11.6296 48.6516 12.6336 48.8103 13.833 48.8503L14.7998 48.8826V52.1921L13.7393 52.1277C12.3495 52.0435 11.0254 52.0017 9.76758 52.0017H9.75098L9.73438 52.0007C8.46602 51.9585 7.17598 51.9373 5.86426 51.9373C4.94064 51.9373 4.06076 51.959 3.22559 52.0007L3.20117 52.0017H3.17578C2.39877 52.0017 1.71858 52.0426 1.13184 52.1208L0 52.2722V49.0222L0.8125 48.8669C1.42624 48.75 2.16785 48.331 3.0293 47.4304C3.82773 46.5957 4.68742 45.0829 5.56934 42.7732L5.57227 42.7664L20.4297 4.64624L21.1582 4.69116C21.8176 4.73238 22.522 4.75365 23.2715 4.75366V5.75366L22.7041 5.74976C22.1441 5.74176 21.6077 5.72121 21.0957 5.68921L6.50391 43.1296C5.60791 45.4763 4.69062 47.1405 3.75195 48.1218L3.40137 48.4705C2.58463 49.2406 1.78407 49.7 1 49.8494V51.1296C1.48 51.0656 2.00799 51.0255 2.58398 51.0095L3.17578 51.0017C4.02911 50.959 4.92559 50.9373 5.86426 50.9373L6.85156 50.9412C7.83557 50.9492 8.80757 50.9697 9.76758 51.0017C11.0475 51.0017 12.3919 50.9164 13.7998 51.0017V49.8494C12.5199 49.8067 11.4103 49.6363 10.4717 49.3376C9.57599 48.9964 8.91492 48.4204 8.48828 47.6101C8.10432 46.7995 7.99737 45.6472 8.16797 44.1541C8.3813 42.6607 8.95684 40.74 9.89551 38.3933L11.5908 33.9773H25.5146L29.3516 44.4734C30.2048 46.6491 30.3334 48.0787 29.7363 48.7615C29.1817 49.4015 27.8156 49.764 25.6396 49.8494V51.1296C26.4076 51.0656 27.3798 51.0255 28.5557 51.0095L29.7998 51.0017C31.5491 50.959 33.4055 50.9373 35.3682 50.9373L36.6758 50.9412C37.9798 50.9492 39.2718 50.9697 40.5518 51.0017C42.301 51.0017 43.8158 51.0443 45.0957 51.1296V49.8494C44.5731 49.812 43.9853 49.5785 43.332 49.1492L43.0479 48.9539C42.4132 48.4312 41.8277 47.5488 41.291 46.3074L41.0635 45.7537L25.5117 5.68921C24.8291 5.73187 24.0821 5.75366 23.2715 5.75366V4.75366C24.0649 4.75366 24.7908 4.73231 25.4492 4.69116L26.1797 4.64624L41.9961 45.3914L42.2119 45.9187C42.7102 47.069 43.2101 47.7819 43.667 48.1658C44.347 48.6513 44.8389 48.8288 45.167 48.8523L46.0957 48.9187V52.199L45.0293 52.1277C43.7778 52.0443 42.2862 52.0017 40.5518 52.0017H40.5273C38.8293 51.9593 37.1093 51.9373 35.3682 51.9373C33.4127 51.9373 31.5645 51.9593 29.8242 52.0017H29.7998C28.062 52.0017 26.7065 52.0437 25.7227 52.1257L24.6396 52.2166V48.8884ZM25.0469 32.698H12.082L18.7217 15.3982L25.0469 32.698ZM13.5371 31.698H23.6172L18.6992 18.2478L13.5371 31.698Z" fill="#FFFEFD"/>
<path d="M19.1776 1.78314C20.758 -0.434599 24.0443 -0.459139 25.6576 1.73475L35.7502 15.4592C37.6845 18.0897 35.8226 21.8045 32.5575 21.8288L12.5785 21.978C9.31344 22.0024 7.39623 18.3159 9.29109 15.6568L19.1776 1.78314Z" fill="#2D2525"/>
<path d="M19.1774 1.783C20.7578 -0.434695 24.0444 -0.459271 25.6577 1.7346L35.7497 15.4594C37.6236 18.0076 35.9353 21.5734 32.8596 21.8161L32.557 21.8292L32.5495 20.8292C34.9983 20.8109 36.3953 18.0242 34.9446 16.0514L24.8516 2.32755C23.6416 0.682135 21.1776 0.700536 19.9923 2.36384L10.1054 16.2369C8.68433 18.2311 10.122 20.9964 12.5706 20.9784L12.578 21.9783L12.2762 21.9699C9.29661 21.7796 7.56936 18.4579 9.12442 15.9092L9.29149 15.657L19.1774 1.783ZM32.5495 20.8292L32.557 21.8292L12.578 21.9783L12.5706 20.9784L32.5495 20.8292Z" fill="#BFADA8"/>
<path d="M9.58179 18V51H8.58179V18H9.58179ZM36.3057 18L36.5818 51H35.5818V18H36.3057Z" fill="#BFADA8"/>
<path d="M11.3037 28.1296L16.0668 44.6296H6.54053L11.3037 28.1296Z" fill="#2D2525"/>
<path d="M9.52196 18H35.5157L36.8057 51H7.80566L9.52196 18Z" fill="#2D2525"/>
<path d="M34.8037 43.1296H37.8037V50.9597L36.8057 50.9999H34.8037V43.1296Z" fill="#2D2525"/>
<path d="M7.80566 43H8.80566V51H7.80566V43Z" fill="#2D2525"/>
<path d="M35.3037 28.1296L40.0668 44.6296H30.5405L35.3037 28.1296Z" fill="#2D2525"/>
<path d="M17.4993 23.1296V22.1296L35.4993 22.1296V23.1296L17.4993 23.1296Z" fill="#6FB39A"/>
<path d="M17.499 44.1295L17.499 43.1295L39.8037 43.1296L39.8037 44.1296L17.499 44.1295Z" fill="#6FB39A"/>
<path d="M24.4993 27.1296C24.4993 28.2342 23.6038 29.1296 22.4993 29.1296C21.3947 29.1296 20.4993 28.2342 20.4993 27.1296C20.4993 26.0251 21.3947 25.1296 22.4993 25.1296C23.6038 25.1296 24.4993 26.0251 24.4993 27.1296Z" fill="#6FB39A"/>
<path d="M24.4993 30.1296C24.4993 29.0251 23.6038 28.1296 22.4993 28.1296C21.3947 28.1296 20.4993 29.0251 20.4993 30.1296C20.4993 31.2342 21.3947 32.1296 22.4993 32.1296V33.1296C20.8424 33.1296 19.4993 31.7865 19.4993 30.1296C19.4993 28.4728 20.8424 27.1296 22.4993 27.1296C24.1561 27.1296 25.4993 28.4728 25.4993 30.1296C25.4993 31.7865 24.1561 33.1296 22.4993 33.1296V32.1296C23.6038 32.1296 24.4993 31.2342 24.4993 30.1296Z" fill="#6FB39A"/>
</svg>
