<svg width="109" height="94" viewBox="0 0 109 94" fill="none" xmlns="http://www.w3.org/2000/svg">
<path d="M22.565 19.052V19.672C21.9037 19.7547 21.4077 19.9303 21.077 20.199C20.7464 20.447 20.519 20.85 20.395 21.408C20.2917 21.966 20.24 22.7513 20.24 23.764V41.062C19.992 41.0413 19.7337 41.031 19.465 41.031C19.217 41.031 18.9484 41.0413 18.659 41.062L5.20503 24.012V35.916C5.20503 37.0527 5.26703 37.931 5.39103 38.551C5.51503 39.1503 5.7837 39.5843 6.19703 39.853C6.63103 40.101 7.3027 40.2767 8.21203 40.38V41C7.81936 40.9587 7.3027 40.938 6.66203 40.938C6.02136 40.9173 5.42203 40.907 4.86403 40.907C4.3887 40.907 3.90303 40.9173 3.40703 40.938C2.91103 40.938 2.4977 40.9587 2.16703 41V40.38C2.82836 40.2767 3.32436 40.101 3.65503 39.853C3.9857 39.605 4.2027 39.202 4.30603 38.644C4.43003 38.0653 4.49203 37.28 4.49203 36.288V22.338C4.49203 21.5733 4.43003 21.0153 4.30603 20.664C4.2027 20.292 3.97536 20.044 3.62403 19.92C3.29336 19.7753 2.8077 19.6927 2.16703 19.672V19.052C2.4977 19.0727 2.91103 19.0933 3.40703 19.114C3.90303 19.1347 4.3887 19.145 4.86403 19.145C5.36003 19.145 5.83536 19.1347 6.29003 19.114C6.7447 19.0933 7.15803 19.0727 7.53003 19.052L19.527 33.839V24.136C19.527 22.9993 19.465 22.1313 19.341 21.532C19.217 20.912 18.938 20.4677 18.504 20.199C18.0907 19.9303 17.4294 19.7547 16.52 19.672V19.052C16.9127 19.0727 17.4294 19.0933 18.07 19.114C18.7107 19.1347 19.31 19.145 19.868 19.145C20.364 19.145 20.8497 19.1347 21.325 19.114C21.821 19.0933 22.2344 19.0727 22.565 19.052ZM35.5492 18.618C37.7399 18.618 39.6515 19.0623 41.2842 19.951C42.9375 20.8397 44.2189 22.121 45.1282 23.795C46.0375 25.4483 46.4922 27.4633 46.4922 29.84C46.4922 32.1547 46.0272 34.18 45.0972 35.916C44.1672 37.652 42.8652 39.0057 41.1912 39.977C39.5379 40.9483 37.6469 41.434 35.5182 41.434C33.3275 41.434 31.4055 40.9897 29.7522 40.101C28.1195 39.2123 26.8485 37.931 25.9392 36.257C25.0299 34.583 24.5752 32.568 24.5752 30.212C24.5752 27.8973 25.0402 25.872 25.9702 24.136C26.9209 22.4 28.2125 21.0463 29.8452 20.075C31.4985 19.1037 33.3999 18.618 35.5492 18.618ZM35.4252 19.176C34.2679 19.176 33.2552 19.641 32.3872 20.571C31.5399 21.501 30.8785 22.7823 30.4032 24.415C29.9485 26.0477 29.7212 27.9387 29.7212 30.088C29.7212 32.2787 29.9795 34.1903 30.4962 35.823C31.0335 37.435 31.7465 38.6853 32.6352 39.574C33.5445 40.442 34.5469 40.876 35.6422 40.876C36.7995 40.876 37.8019 40.411 38.6492 39.481C39.5172 38.551 40.1785 37.2697 40.6332 35.637C41.1085 33.9837 41.3462 32.0927 41.3462 29.964C41.3462 27.7527 41.0775 25.841 40.5402 24.229C40.0235 22.617 39.3105 21.377 38.4012 20.509C37.5125 19.6203 36.5205 19.176 35.4252 19.176ZM48.636 19.052C49.1734 19.0727 49.876 19.0933 50.744 19.114C51.612 19.1347 52.48 19.145 53.348 19.145C54.34 19.145 55.301 19.1347 56.231 19.114C57.161 19.0933 57.8224 19.083 58.215 19.083C60.7777 19.083 62.6894 19.5377 63.95 20.447C65.2314 21.3563 65.872 22.524 65.872 23.95C65.872 24.6733 65.655 25.407 65.221 26.151C64.787 26.895 64.1154 27.5563 63.206 28.135C62.2967 28.7137 61.1187 29.1373 59.672 29.406V29.468C61.6147 29.6127 63.1544 29.964 64.291 30.522C65.4277 31.08 66.244 31.7517 66.74 32.537C67.236 33.3223 67.484 34.1387 67.484 34.986C67.484 36.288 67.143 37.3833 66.461 38.272C65.779 39.1607 64.7974 39.8427 63.516 40.318C62.2347 40.7727 60.7054 41 58.928 41C58.432 41 57.719 40.9897 56.789 40.969C55.859 40.9277 54.7327 40.907 53.41 40.907C52.5007 40.907 51.612 40.9173 50.744 40.938C49.876 40.938 49.1734 40.9587 48.636 41V40.38C49.2974 40.3387 49.7934 40.256 50.124 40.132C50.4547 40.008 50.6717 39.76 50.775 39.388C50.899 39.016 50.961 38.458 50.961 37.714V22.338C50.961 21.5733 50.899 21.0153 50.775 20.664C50.6717 20.292 50.4444 20.044 50.093 19.92C49.7624 19.7753 49.2767 19.6927 48.636 19.672V19.052ZM57.812 19.672C57.006 19.672 56.479 19.8477 56.231 20.199C56.0037 20.5503 55.89 21.2633 55.89 22.338V37.714C55.89 38.4373 55.9417 38.985 56.045 39.357C56.169 39.729 56.3757 39.977 56.665 40.101C56.975 40.225 57.4297 40.287 58.029 40.287C59.517 40.287 60.602 39.822 61.284 38.892C61.9867 37.9413 62.338 36.598 62.338 34.862C62.338 33.2707 61.935 32.041 61.129 31.173C60.3437 30.305 59.0314 29.871 57.192 29.871H54.557C54.557 29.871 54.557 29.7883 54.557 29.623C54.557 29.437 54.557 29.344 54.557 29.344H57.223C58.1944 29.344 58.9384 29.1167 59.455 28.662C59.9717 28.1867 60.3334 27.5667 60.54 26.802C60.7467 26.0167 60.85 25.1797 60.85 24.291C60.85 22.7617 60.6124 21.6147 60.137 20.85C59.6617 20.0647 58.8867 19.672 57.812 19.672ZM79.1383 19.052V19.672C78.4357 19.6927 77.8983 19.7753 77.5263 19.92C77.175 20.044 76.9373 20.292 76.8133 20.664C76.6893 21.0153 76.6273 21.5733 76.6273 22.338V38.086C76.6273 38.7267 76.6687 39.202 76.7513 39.512C76.8547 39.822 77.0407 40.0287 77.3093 40.132C77.5987 40.2353 78.0223 40.287 78.5803 40.287H80.0993C80.802 40.287 81.4633 40.1217 82.0833 39.791C82.7033 39.4603 83.2613 38.9953 83.7573 38.396C84.2533 37.776 84.6667 37.0423 84.9973 36.195C85.328 35.3477 85.576 34.4073 85.7413 33.374H86.4543C86.3923 34.0767 86.3613 34.986 86.3613 36.102C86.3613 36.5773 86.3717 37.2697 86.3923 38.179C86.413 39.0883 86.475 40.0287 86.5783 41C85.5243 40.9587 84.336 40.938 83.0133 40.938C81.6907 40.9173 80.5127 40.907 79.4793 40.907C78.9627 40.907 78.3013 40.907 77.4953 40.907C76.6893 40.907 75.8213 40.9173 74.8913 40.938C73.9613 40.938 73.021 40.9483 72.0703 40.969C71.1197 40.969 70.2207 40.9793 69.3733 41V40.38C70.0347 40.3387 70.5307 40.256 70.8613 40.132C71.192 40.008 71.409 39.76 71.5123 39.388C71.6363 39.016 71.6983 38.458 71.6983 37.714V22.338C71.6983 21.5733 71.6363 21.0153 71.5123 20.664C71.409 20.292 71.1817 20.044 70.8303 19.92C70.4997 19.7753 70.014 19.6927 69.3733 19.672V19.052C69.89 19.0727 70.5823 19.0933 71.4503 19.114C72.339 19.1347 73.2793 19.145 74.2713 19.145C75.1807 19.145 76.0693 19.1347 76.9373 19.114C77.826 19.0933 78.5597 19.0727 79.1383 19.052ZM104.91 19.052C104.827 19.9613 104.765 20.8397 104.724 21.687C104.703 22.5343 104.693 23.1853 104.693 23.64C104.693 24.0533 104.703 24.446 104.724 24.818C104.744 25.19 104.765 25.5 104.786 25.748H104.073C103.866 24.2393 103.546 23.051 103.112 22.183C102.678 21.2943 102.109 20.6743 101.407 20.323C100.725 19.951 99.9185 19.765 98.9885 19.765H97.7175C97.1182 19.765 96.6635 19.8167 96.3535 19.92C96.0435 20.0233 95.8368 20.23 95.7335 20.54C95.6302 20.85 95.5785 21.3253 95.5785 21.966V38.086C95.5785 38.7267 95.6302 39.202 95.7335 39.512C95.8368 39.822 96.0435 40.0287 96.3535 40.132C96.6635 40.2353 97.1182 40.287 97.7175 40.287H99.2365C100.167 40.287 100.983 40.0907 101.686 39.698C102.409 39.2847 103.019 38.5923 103.515 37.621C104.031 36.6497 104.424 35.3373 104.693 33.684H105.406C105.344 34.3453 105.313 35.2133 105.313 36.288C105.313 36.7633 105.323 37.435 105.344 38.303C105.364 39.171 105.426 40.07 105.53 41C104.476 40.9587 103.287 40.938 101.965 40.938C100.642 40.9173 99.4638 40.907 98.4305 40.907C97.9138 40.907 97.2525 40.907 96.4465 40.907C95.6405 40.907 94.7725 40.9173 93.8425 40.938C92.9125 40.938 91.9722 40.9483 91.0215 40.969C90.0708 40.969 89.1718 40.9793 88.3245 41V40.38C88.9858 40.3387 89.4818 40.256 89.8125 40.132C90.1432 40.008 90.3602 39.76 90.4635 39.388C90.5875 39.016 90.6495 38.458 90.6495 37.714V22.338C90.6495 21.5733 90.5875 21.0153 90.4635 20.664C90.3602 20.292 90.1328 20.044 89.7815 19.92C89.4508 19.7753 88.9652 19.6927 88.3245 19.672V19.052C89.1718 19.0727 90.0708 19.0933 91.0215 19.114C91.9722 19.114 92.9125 19.1243 93.8425 19.145C94.7725 19.145 95.6405 19.145 96.4465 19.145C97.2525 19.145 97.9138 19.145 98.4305 19.145C99.3812 19.145 100.456 19.145 101.655 19.145C102.874 19.1243 103.959 19.0933 104.91 19.052ZM100.074 29.654C100.074 29.654 100.074 29.7573 100.074 29.964C100.074 30.1707 100.074 30.274 100.074 30.274H94.6485C94.6485 30.274 94.6485 30.1707 94.6485 29.964C94.6485 29.7573 94.6485 29.654 94.6485 29.654H100.074ZM100.973 25.562C100.89 26.74 100.849 27.639 100.849 28.259C100.869 28.879 100.88 29.4473 100.88 29.964C100.88 30.4807 100.89 31.049 100.911 31.669C100.931 32.289 100.983 33.188 101.066 34.366H100.353C100.249 33.6427 100.053 32.971 99.7635 32.351C99.4948 31.731 99.1022 31.235 98.5855 30.863C98.0688 30.4703 97.3972 30.274 96.5705 30.274V29.654C97.1905 29.654 97.7175 29.53 98.1515 29.282C98.5855 29.0133 98.9368 28.6723 99.2055 28.259C99.4948 27.825 99.7222 27.3703 99.8875 26.895C100.053 26.4197 100.177 25.9753 100.26 25.562H100.973ZM23.8269 55.649C25.0463 55.649 25.9866 55.7833 26.648 56.052C27.3093 56.3 27.8776 56.5687 28.3529 56.858C28.6009 57.0027 28.7973 57.1163 28.942 57.199C29.1073 57.261 29.2623 57.292 29.4069 57.292C29.6136 57.292 29.7583 57.1783 29.8409 56.951C29.9443 56.7237 30.0269 56.3827 30.089 55.928H30.8019C30.7813 56.3207 30.7503 56.796 30.709 57.354C30.6883 57.8913 30.6676 58.6043 30.6469 59.493C30.6469 60.3817 30.6469 61.5493 30.6469 62.996H29.934C29.8513 61.9213 29.6033 60.8777 29.1899 59.865C28.7766 58.8523 28.1876 58.0257 27.4229 57.385C26.6789 56.7237 25.7593 56.393 24.6639 56.393C23.6719 56.393 22.8556 56.672 22.2149 57.23C21.5743 57.788 21.2539 58.563 21.2539 59.555C21.2539 60.3817 21.4606 61.0947 21.8739 61.694C22.2873 62.2727 22.8866 62.841 23.6719 63.399C24.4779 63.957 25.4493 64.6287 26.586 65.414C27.578 66.0547 28.4666 66.6953 29.2519 67.336C30.0373 67.9767 30.6676 68.7 31.143 69.506C31.6183 70.312 31.856 71.273 31.856 72.389C31.856 73.753 31.4943 74.8793 30.7709 75.768C30.0683 76.6567 29.1383 77.3283 27.9809 77.783C26.8236 78.217 25.5526 78.434 24.1679 78.434C22.8866 78.434 21.8636 78.31 21.0989 78.062C20.3343 77.814 19.6936 77.5557 19.1769 77.287C18.7223 76.9977 18.3709 76.853 18.1229 76.853C17.9163 76.853 17.7613 76.9667 17.6579 77.194C17.5753 77.4213 17.5029 77.7623 17.4409 78.217H16.7279C16.7693 77.721 16.7899 77.1423 16.7899 76.481C16.8106 75.8197 16.8209 74.962 16.8209 73.908C16.8416 72.8333 16.8519 71.4797 16.8519 69.847H17.5649C17.6476 71.211 17.8749 72.4923 18.2469 73.691C18.6396 74.869 19.2286 75.8197 20.0139 76.543C20.8199 77.2663 21.8843 77.628 23.2069 77.628C23.9303 77.628 24.5709 77.504 25.1289 77.256C25.7076 76.9873 26.1726 76.5947 26.5239 76.078C26.8753 75.5613 27.0509 74.9207 27.0509 74.156C27.0509 73.288 26.8443 72.5337 26.431 71.893C26.0383 71.2523 25.4906 70.653 24.788 70.095C24.1059 69.537 23.3103 68.9687 22.4009 68.39C21.4296 67.7493 20.5203 67.1087 19.6729 66.468C18.8256 65.8273 18.1436 65.0937 17.6269 64.267C17.1309 63.4403 16.8829 62.4587 16.8829 61.322C16.8829 60.02 17.2033 58.9557 17.8439 58.129C18.5053 57.2817 19.3629 56.6617 20.4169 56.269C21.4916 55.8557 22.6283 55.649 23.8269 55.649ZM53.0285 56.052C52.9458 57.106 52.8838 58.1187 52.8425 59.09C52.8218 60.0613 52.8115 60.8053 52.8115 61.322C52.8115 61.7767 52.8218 62.2107 52.8425 62.624C52.8631 63.0373 52.8838 63.3887 52.9045 63.678H52.1915C51.8608 61.942 51.4371 60.5677 50.9205 59.555C50.4245 58.5423 49.8251 57.8293 49.1225 57.416C48.4198 56.982 47.5931 56.765 46.6425 56.765H45.9295V74.466C45.9295 75.2927 46.0121 75.9127 46.1775 76.326C46.3635 76.7393 46.6941 77.0183 47.1695 77.163C47.6448 77.287 48.3371 77.3593 49.2465 77.38V78C48.6058 77.9793 47.7481 77.9587 46.6735 77.938C45.6195 77.9173 44.5138 77.907 43.3565 77.907C42.2198 77.907 41.1451 77.9173 40.1325 77.938C39.1198 77.9587 38.3035 77.9793 37.6835 78V77.38C38.6135 77.3593 39.3161 77.287 39.7915 77.163C40.2668 77.0183 40.5871 76.7393 40.7525 76.326C40.9178 75.9127 41.0005 75.2927 41.0005 74.466V56.765H40.3185C39.3678 56.765 38.5411 56.982 37.8385 57.416C37.1358 57.8293 36.5365 58.5423 36.0405 59.555C35.5445 60.547 35.1105 61.9213 34.7385 63.678H34.0255C34.0668 63.3887 34.0875 63.0373 34.0875 62.624C34.1081 62.2107 34.1185 61.7767 34.1185 61.322C34.1185 60.8053 34.0978 60.0613 34.0565 59.09C34.0358 58.1187 33.9841 57.106 33.9015 56.052C34.8521 56.0727 35.8855 56.0933 37.0015 56.114C38.1381 56.1347 39.2748 56.145 40.4115 56.145C41.5481 56.145 42.5711 56.145 43.4805 56.145C44.4105 56.145 45.4335 56.145 46.5495 56.145C47.6861 56.145 48.8228 56.1347 49.9595 56.114C51.0961 56.0933 52.1191 56.0727 53.0285 56.052ZM92.7896 56.021V56.641C92.3349 56.827 91.8699 57.199 91.3946 57.757C90.9193 58.2943 90.3923 59.121 89.8136 60.237L83.9546 71.831H82.4976L75.2436 58.408C74.8716 57.7053 74.5306 57.2403 74.2206 57.013C73.9313 56.7857 73.6729 56.672 73.4456 56.672V56.021C74.0036 56.083 74.5719 56.1243 75.1506 56.145C75.7499 56.1657 76.4009 56.176 77.1036 56.176C78.0129 56.176 78.9946 56.1657 80.0486 56.145C81.1026 56.1037 82.0636 56.0623 82.9316 56.021V56.672C82.4149 56.672 81.9499 56.7133 81.5366 56.796C81.1233 56.8787 80.8339 57.0337 80.6686 57.261C80.5033 57.4677 80.5446 57.8087 80.7926 58.284L85.6906 67.708L84.7296 68.948L87.9226 62.531C88.6873 61.043 89.0903 59.8753 89.1316 59.028C89.1936 58.1807 88.9869 57.5813 88.5116 57.23C88.0569 56.858 87.4059 56.6617 86.5586 56.641V56.021C87.2613 56.0417 87.9226 56.0623 88.5426 56.083C89.1626 56.1037 89.7929 56.114 90.4336 56.114C90.8883 56.114 91.3119 56.1037 91.7046 56.083C92.1179 56.0623 92.4796 56.0417 92.7896 56.021ZM86.1556 66.933V74.714C86.1556 75.458 86.2073 76.016 86.3106 76.388C86.4346 76.76 86.6619 77.008 86.9926 77.132C87.3233 77.256 87.8193 77.3387 88.4806 77.38V78C87.9226 77.9587 87.1993 77.938 86.3106 77.938C85.4426 77.9173 84.5746 77.907 83.7066 77.907C82.7353 77.907 81.8156 77.9173 80.9476 77.938C80.0796 77.938 79.3976 77.9587 78.9016 78V77.38C79.5629 77.3387 80.0589 77.256 80.3896 77.132C80.7203 77.008 80.9373 76.76 81.0406 76.388C81.1646 76.016 81.2266 75.458 81.2266 74.714V68.359L83.9236 70.281L86.1556 66.933Z" fill="#2D2525"/>
<path d="M64.1687 56.6418L69.5509 75.2435C69.7576 75.9567 69.9865 76.452 70.2375 76.7293C70.5033 76.9868 70.7396 77.1255 70.9463 77.1453V77.7396C70.5033 77.7 69.9791 77.6802 69.3737 77.6802C68.7831 77.6604 68.1851 77.6505 67.5796 77.6505C66.9004 77.6505 66.2581 77.6604 65.6527 77.6802C65.0473 77.6802 64.5674 77.6398 64.213 77.6794V77.1453C64.966 77.1057 65.4386 76.9373 65.6305 76.6402C65.8372 76.3232 65.7929 75.6596 65.4976 74.6492L61.7323 60.8317L62.131 60.0591L58.7643 71.8263C58.4394 72.9159 58.2401 73.8073 58.1663 74.5007C58.1072 75.194 58.1441 75.7289 58.277 76.1053C58.4247 76.4817 58.6535 76.7491 58.9636 76.9076C59.2885 77.0463 59.6724 77.1255 60.1154 77.1453V77.7396C59.6281 77.7 59.163 77.6802 58.72 77.6802C58.277 77.6604 57.8266 77.6505 57.3689 77.6505C57.044 77.6505 56.7339 77.6604 56.4386 77.6802C56.1581 77.6802 55.907 77.7 55.6855 77.7396V77.1453C55.9956 77.0661 56.3131 76.7986 56.638 76.343C56.9628 75.8874 57.2803 75.1148 57.5904 74.0252L62.6404 56.6418C62.8766 56.6617 63.1277 56.6716 63.3935 56.6716C63.674 56.6716 63.9324 56.6617 64.1687 56.6418ZM65.7191 69.1816V69.776H59.1187L59.3402 69.1816H65.7191Z" fill="#2D2525"/>
<path d="M63.8669 76.6986L64.1995 76.6809C64.5626 76.6618 64.8412 76.6124 65.0434 76.5404C65.2528 76.4657 65.3399 76.3812 65.3692 76.3359L65.3702 76.3341C65.3832 76.3142 65.4262 76.2226 65.4077 75.9455C65.3897 75.6764 65.3177 75.3046 65.1755 74.8183L65.1728 74.8083L63.9277 70.2397H59.5889L59.0873 71.9921L59.0857 71.9985C58.7652 73.0732 58.5773 73.9254 58.5091 74.5657C58.4551 75.2108 58.4974 75.6372 58.5871 75.8979C58.6924 76.1614 58.8508 76.3496 59.0792 76.4687C59.3644 76.5887 59.7119 76.6624 60.1269 76.6809L60.4615 76.6959V78.2325L60.0945 78.2026C59.6135 78.1635 59.1553 78.1441 58.72 78.1441H58.7142L58.7085 78.1437C58.2695 78.124 57.8231 78.1142 57.3691 78.1142C57.0495 78.1142 56.7449 78.1243 56.4559 78.1437L56.4475 78.1441H56.4387C56.1698 78.1441 55.9344 78.1631 55.7313 78.1994L55.3396 78.2697V76.7607L55.6208 76.6886C55.8332 76.6344 56.0898 76.4398 56.388 76.0217C56.6643 75.6341 56.9618 74.9317 57.267 73.8593L57.2681 73.8561L62.4099 56.157L62.662 56.1778C62.8903 56.197 63.134 56.2069 63.3934 56.2069V56.6712L63.1971 56.6693C63.0032 56.6656 62.8176 56.6561 62.6404 56.6412L57.5905 74.0248C57.2804 75.1144 56.9629 75.887 56.6381 76.3427L56.5167 76.5045C56.2341 76.8621 55.957 77.0754 55.6857 77.1448V77.7392C55.8518 77.7095 56.0345 77.6909 56.2339 77.6834L56.4387 77.6798C56.734 77.66 57.0443 77.6499 57.3691 77.6499L57.7108 77.6517C58.0513 77.6554 58.3877 77.6649 58.72 77.6798C59.1629 77.6798 59.6282 77.6402 60.1154 77.6798V77.1448C59.6725 77.125 59.2885 77.0458 58.9636 76.9072C58.6537 76.7487 58.4249 76.4813 58.2772 76.1051C58.1443 75.7287 58.1073 75.1937 58.1664 74.5004C58.2402 73.8071 58.4394 72.9153 58.7642 71.8257L59.351 69.7754H64.1697L65.4976 74.6487C65.7929 75.6589 65.8374 76.3227 65.6308 76.6397C65.4388 76.9368 64.9661 77.1052 64.213 77.1448V77.7392C64.4788 77.7095 64.8152 77.6909 65.2222 77.6834L65.6527 77.6798C66.2581 77.66 66.9006 77.6499 67.5798 77.6499L68.0324 77.6517C68.4837 77.6554 68.9308 77.6649 69.3738 77.6798C69.9791 77.6798 70.5034 77.6996 70.9464 77.7392V77.1448C70.7655 77.1274 70.5621 77.019 70.336 76.8197L70.2376 76.729C70.018 76.4863 69.8154 76.0766 69.6296 75.5002L69.5509 75.2431L64.1687 56.6412C63.9325 56.661 63.6739 56.6712 63.3934 56.6712V56.2069C63.668 56.2069 63.9192 56.1969 64.1471 56.1778L64.3999 56.157L69.8736 75.0749L69.9483 75.3198C70.1208 75.8539 70.2938 76.1849 70.4519 76.3631C70.6873 76.5885 70.8575 76.6709 70.971 76.6818L71.2924 76.7127V78.2357L70.9234 78.2026C70.4902 78.1639 69.974 78.1441 69.3738 78.1441H69.3653C68.7777 78.1244 68.1824 78.1142 67.5798 78.1142C66.9031 78.1142 66.2635 78.1244 65.6612 78.1441H65.6527C65.0513 78.1441 64.5822 78.1636 64.2417 78.2017L63.8669 78.2439V76.6986ZM64.0078 69.1814H59.521L61.8188 61.1491L64.0078 69.1814ZM60.0245 68.7171H63.5131L61.811 62.4722L60.0245 68.7171Z" fill="#FFFEFD"/>
<path d="M61.9764 54.828C62.5234 53.7983 63.6607 53.7869 64.219 54.8055L67.7119 61.1778C68.3813 62.3991 67.7369 64.1239 66.607 64.1352L59.6926 64.2045C58.5626 64.2158 57.8991 62.5041 58.5549 61.2695L61.9764 54.828Z" fill="#2D2525"/>
<path d="M61.9764 54.8277C62.5233 53.7981 63.6607 53.7867 64.2191 54.8053L67.7117 61.1777C68.3602 62.3608 67.7759 64.0164 66.7115 64.1291L66.6068 64.1352L66.6042 63.6709C67.4517 63.6624 67.9351 62.3685 67.4331 61.4525L63.9401 55.0806C63.5213 54.3166 62.6686 54.3252 62.2584 55.0974L58.8367 61.5387C58.3449 62.4646 58.8425 63.7485 59.6899 63.7401L59.6924 64.2044L59.588 64.2005C58.5568 64.1121 57.959 62.5699 58.4972 61.3865L58.555 61.2694L61.9764 54.8277ZM66.6042 63.6709L66.6068 64.1352L59.6924 64.2044L59.6899 63.7401L66.6042 63.6709Z" fill="#BFADA8"/>
<path d="M58.6557 62.3574V77.6793H58.3096V62.3574H58.6557ZM67.9043 62.3574L67.9998 77.6793H67.6537V62.3574H67.9043Z" fill="#BFADA8"/>
<path d="M59.2516 67.0605L60.9 74.7215H57.6031L59.2516 67.0605Z" fill="#2D2525"/>
<path d="M58.635 62.3574H67.6309L68.0774 77.6793H58.041L58.635 62.3574Z" fill="#2D2525"/>
<path d="M67.3845 74.0249H68.4228V77.6604L68.0774 77.6791H67.3845V74.0249Z" fill="#2D2525"/>
<path d="M58.041 73.9651H58.3871V77.6795H58.041V73.9651Z" fill="#2D2525"/>
<path d="M67.5575 67.0605L69.2059 74.7215H65.9091L67.5575 67.0605Z" fill="#2D2525"/>
<path d="M61.3958 64.7393V64.275H67.6252V64.7393H61.3958Z" fill="#6FB39A"/>
<path d="M61.3956 74.4894L61.3956 74.0251L69.1149 74.0252L69.1149 74.4895L61.3956 74.4894Z" fill="#6FB39A"/>
<path d="M63.8184 66.5963C63.8184 67.1092 63.5085 67.5249 63.1262 67.5249C62.744 67.5249 62.4341 67.1092 62.4341 66.5963C62.4341 66.0835 62.744 65.6677 63.1262 65.6677C63.5085 65.6677 63.8184 66.0835 63.8184 66.5963Z" fill="#6FB39A"/>
<path d="M63.9915 67.9288C63.9915 67.4159 63.6816 67.0002 63.2994 67.0002C62.9171 67.0002 62.6072 67.4159 62.6072 67.9288C62.6072 68.4416 62.9171 68.8574 63.2994 68.8574V69.3217C62.7259 69.3217 62.2611 68.6981 62.2611 67.9288C62.2611 67.1595 62.7259 66.5359 63.2994 66.5359C63.8728 66.5359 64.3376 67.1595 64.3376 67.9288C64.3376 68.6981 63.8728 69.3217 63.2994 69.3217V68.8574C63.6816 68.8574 63.9915 68.4416 63.9915 67.9288Z" fill="#6FB39A"/>
</svg>
