<svg width="410" height="73" viewBox="0 0 410 73" fill="none" xmlns="http://www.w3.org/2000/svg">
<path d="M42.273 18.812V20.032C40.9717 20.1947 39.9957 20.5403 39.345 21.069C38.6943 21.557 38.247 22.35 38.003 23.448C37.7997 24.546 37.698 26.0913 37.698 28.084V62.122C37.21 62.0813 36.7017 62.061 36.173 62.061C35.685 62.061 35.1563 62.0813 34.587 62.122L8.113 28.572V51.996C8.113 54.2327 8.235 55.961 8.479 57.181C8.723 58.3603 9.25167 59.2143 10.065 59.743C10.919 60.231 12.2407 60.5767 14.03 60.78V62C13.2573 61.9187 12.2407 61.878 10.98 61.878C9.71933 61.8373 8.54 61.817 7.442 61.817C6.50667 61.817 5.551 61.8373 4.575 61.878C3.599 61.878 2.78567 61.9187 2.135 62V60.78C3.43633 60.5767 4.41233 60.231 5.063 59.743C5.71367 59.255 6.14067 58.462 6.344 57.364C6.588 56.2253 6.71 54.68 6.71 52.728V25.278C6.71 23.7733 6.588 22.6753 6.344 21.984C6.14067 21.252 5.69333 20.764 5.002 20.52C4.35133 20.2353 3.39567 20.0727 2.135 20.032V18.812C2.78567 18.8527 3.599 18.8933 4.575 18.934C5.551 18.9747 6.50667 18.995 7.442 18.995C8.418 18.995 9.35333 18.9747 10.248 18.934C11.1427 18.8933 11.956 18.8527 12.688 18.812L36.295 47.909V28.816C36.295 26.5793 36.173 24.8713 35.929 23.692C35.685 22.472 35.136 21.5977 34.282 21.069C33.4687 20.5403 32.1673 20.1947 30.378 20.032V18.812C31.1507 18.8527 32.1673 18.8933 33.428 18.934C34.6887 18.9747 35.868 18.995 36.966 18.995C37.942 18.995 38.8977 18.9747 39.833 18.934C40.809 18.8933 41.6223 18.8527 42.273 18.812ZM70.8725 17.958C75.1831 17.958 78.9448 18.8323 82.1575 20.581C85.4108 22.3297 87.9321 24.851 89.7215 28.145C91.5108 31.3983 92.4055 35.3633 92.4055 40.04C92.4055 44.5947 91.4905 48.58 89.6605 51.996C87.8305 55.412 85.2685 58.0757 81.9745 59.987C78.7211 61.8983 75.0001 62.854 70.8115 62.854C66.5008 62.854 62.7188 61.9797 59.4655 60.231C56.2528 58.4823 53.7518 55.961 51.9625 52.667C50.1731 49.373 49.2785 45.408 49.2785 40.772C49.2785 36.2173 50.1935 32.232 52.0235 28.816C53.8941 25.4 56.4358 22.7363 59.6485 20.825C62.9018 18.9137 66.6431 17.958 70.8725 17.958ZM70.6285 19.056C68.3511 19.056 66.3585 19.971 64.6505 21.801C62.9831 23.631 61.6818 26.1523 60.7465 29.365C59.8518 32.5777 59.4045 36.2987 59.4045 40.528C59.4045 44.8387 59.9128 48.6003 60.9295 51.813C61.9868 54.985 63.3898 57.4453 65.1385 59.194C66.9278 60.902 68.9001 61.756 71.0555 61.756C73.3328 61.756 75.3051 60.841 76.9725 59.011C78.6805 57.181 79.9818 54.6597 80.8765 51.447C81.8118 48.1937 82.2795 44.4727 82.2795 40.284C82.2795 35.9327 81.7508 32.171 80.6935 28.999C79.6768 25.827 78.2738 23.387 76.4845 21.679C74.7358 19.9303 72.7838 19.056 70.6285 19.056ZM99.674 18.812C100.731 18.8527 102.114 18.8933 103.822 18.934C105.53 18.9747 107.238 18.995 108.946 18.995C110.898 18.995 112.789 18.9747 114.619 18.934C116.449 18.8933 117.75 18.873 118.523 18.873C123.566 18.873 127.327 19.7677 129.808 21.557C132.329 23.3463 133.59 25.644 133.59 28.45C133.59 29.8733 133.163 31.317 132.309 32.781C131.455 34.245 130.133 35.5463 128.344 36.685C126.555 37.8237 124.237 38.6573 121.39 39.186V39.308C125.213 39.5927 128.242 40.284 130.479 41.382C132.716 42.48 134.322 43.8017 135.298 45.347C136.274 46.8923 136.762 48.4987 136.762 50.166C136.762 52.728 136.091 54.8833 134.749 56.632C133.407 58.3807 131.475 59.7227 128.954 60.658C126.433 61.5527 123.423 62 119.926 62C118.95 62 117.547 61.9797 115.717 61.939C113.887 61.8577 111.671 61.817 109.068 61.817C107.279 61.817 105.53 61.8373 103.822 61.878C102.114 61.878 100.731 61.9187 99.674 62V60.78C100.975 60.6987 101.951 60.536 102.602 60.292C103.253 60.048 103.68 59.56 103.883 58.828C104.127 58.096 104.249 56.998 104.249 55.534V25.278C104.249 23.7733 104.127 22.6753 103.883 21.984C103.68 21.252 103.232 20.764 102.541 20.52C101.89 20.2353 100.935 20.0727 99.674 20.032V18.812ZM117.73 20.032C116.144 20.032 115.107 20.3777 114.619 21.069C114.172 21.7603 113.948 23.1633 113.948 25.278V55.534C113.948 56.9573 114.05 58.035 114.253 58.767C114.497 59.499 114.904 59.987 115.473 60.231C116.083 60.475 116.978 60.597 118.157 60.597C121.085 60.597 123.22 59.682 124.562 57.852C125.945 55.9813 126.636 53.338 126.636 49.922C126.636 46.7907 125.843 44.371 124.257 42.663C122.712 40.955 120.129 40.101 116.51 40.101H111.325C111.325 40.101 111.325 39.9383 111.325 39.613C111.325 39.247 111.325 39.064 111.325 39.064H116.571C118.482 39.064 119.946 38.6167 120.963 37.722C121.98 36.7867 122.691 35.5667 123.098 34.062C123.505 32.5167 123.708 30.8697 123.708 29.121C123.708 26.1117 123.24 23.8547 122.305 22.35C121.37 20.8047 119.845 20.032 117.73 20.032ZM162.745 18.812V20.032C161.362 20.0727 160.305 20.2353 159.573 20.52C158.881 20.764 158.414 21.252 158.17 21.984C157.926 22.6753 157.804 23.7733 157.804 25.278V56.266C157.804 57.5267 157.885 58.462 158.048 59.072C158.251 59.682 158.617 60.0887 159.146 60.292C159.715 60.4953 160.549 60.597 161.647 60.597H164.636C166.018 60.597 167.32 60.2717 168.54 59.621C169.76 58.9703 170.858 58.0553 171.834 56.876C172.81 55.656 173.623 54.2123 174.274 52.545C174.924 50.8777 175.412 49.0273 175.738 46.994H177.141C177.019 48.3767 176.958 50.166 176.958 52.362C176.958 53.2973 176.978 54.6597 177.019 56.449C177.059 58.2383 177.181 60.0887 177.385 62C175.311 61.9187 172.972 61.878 170.37 61.878C167.767 61.8373 165.449 61.817 163.416 61.817C162.399 61.817 161.098 61.817 159.512 61.817C157.926 61.817 156.218 61.8373 154.388 61.878C152.558 61.878 150.707 61.8983 148.837 61.939C146.966 61.939 145.197 61.9593 143.53 62V60.78C144.831 60.6987 145.807 60.536 146.458 60.292C147.108 60.048 147.535 59.56 147.739 58.828C147.983 58.096 148.105 56.998 148.105 55.534V25.278C148.105 23.7733 147.983 22.6753 147.739 21.984C147.535 21.252 147.088 20.764 146.397 20.52C145.746 20.2353 144.79 20.0727 143.53 20.032V18.812C144.546 18.8527 145.909 18.8933 147.617 18.934C149.365 18.9747 151.216 18.995 153.168 18.995C154.957 18.995 156.706 18.9747 158.414 18.934C160.162 18.8933 161.606 18.8527 162.745 18.812ZM216.506 18.812C216.343 20.6013 216.221 22.3297 216.14 23.997C216.099 25.6643 216.079 26.9453 216.079 27.84C216.079 28.6533 216.099 29.426 216.14 30.158C216.18 30.89 216.221 31.5 216.262 31.988H214.859C214.452 29.0193 213.822 26.681 212.968 24.973C212.114 23.2243 210.995 22.0043 209.613 21.313C208.271 20.581 206.685 20.215 204.855 20.215H202.354C201.174 20.215 200.28 20.3167 199.67 20.52C199.06 20.7233 198.653 21.13 198.45 21.74C198.246 22.35 198.145 23.2853 198.145 24.546V56.266C198.145 57.5267 198.246 58.462 198.45 59.072C198.653 59.682 199.06 60.0887 199.67 60.292C200.28 60.4953 201.174 60.597 202.354 60.597H205.343C207.173 60.597 208.779 60.2107 210.162 59.438C211.585 58.6247 212.785 57.2623 213.761 55.351C214.777 53.4397 215.55 50.8573 216.079 47.604H217.482C217.36 48.9053 217.299 50.6133 217.299 52.728C217.299 53.6633 217.319 54.985 217.36 56.693C217.4 58.401 217.522 60.17 217.726 62C215.652 61.9187 213.313 61.878 210.711 61.878C208.108 61.8373 205.79 61.817 203.757 61.817C202.74 61.817 201.439 61.817 199.853 61.817C198.267 61.817 196.559 61.8373 194.729 61.878C192.899 61.878 191.048 61.8983 189.178 61.939C187.307 61.939 185.538 61.9593 183.871 62V60.78C185.172 60.6987 186.148 60.536 186.799 60.292C187.449 60.048 187.876 59.56 188.08 58.828C188.324 58.096 188.446 56.998 188.446 55.534V25.278C188.446 23.7733 188.324 22.6753 188.08 21.984C187.876 21.252 187.429 20.764 186.738 20.52C186.087 20.2353 185.131 20.0727 183.871 20.032V18.812C185.538 18.8527 187.307 18.8933 189.178 18.934C191.048 18.934 192.899 18.9543 194.729 18.995C196.559 18.995 198.267 18.995 199.853 18.995C201.439 18.995 202.74 18.995 203.757 18.995C205.627 18.995 207.742 18.995 210.101 18.995C212.5 18.9543 214.635 18.8933 216.506 18.812ZM206.99 39.674C206.99 39.674 206.99 39.8773 206.99 40.284C206.99 40.6907 206.99 40.894 206.99 40.894H196.315C196.315 40.894 196.315 40.6907 196.315 40.284C196.315 39.8773 196.315 39.674 196.315 39.674H206.99ZM208.759 31.622C208.596 33.94 208.515 35.709 208.515 36.929C208.555 38.149 208.576 39.2673 208.576 40.284C208.576 41.3007 208.596 42.419 208.637 43.639C208.677 44.859 208.779 46.628 208.942 48.946H207.539C207.335 47.5227 206.949 46.201 206.38 44.981C205.851 43.761 205.078 42.785 204.062 42.053C203.045 41.2803 201.723 40.894 200.097 40.894V39.674C201.317 39.674 202.354 39.43 203.208 38.942C204.062 38.4133 204.753 37.7423 205.282 36.929C205.851 36.075 206.298 35.1803 206.624 34.245C206.949 33.3097 207.193 32.4353 207.356 31.622H208.759ZM258.119 18.019C260.518 18.019 262.369 18.2833 263.67 18.812C264.971 19.3 266.09 19.8287 267.025 20.398C267.513 20.6827 267.899 20.9063 268.184 21.069C268.509 21.191 268.814 21.252 269.099 21.252C269.506 21.252 269.79 21.0283 269.953 20.581C270.156 20.1337 270.319 19.4627 270.441 18.568H271.844C271.803 19.3407 271.742 20.276 271.661 21.374C271.62 22.4313 271.58 23.8343 271.539 25.583C271.539 27.3317 271.539 29.6293 271.539 32.476H270.136C269.973 30.3613 269.485 28.3077 268.672 26.315C267.859 24.3223 266.7 22.6957 265.195 21.435C263.731 20.1337 261.921 19.483 259.766 19.483C257.814 19.483 256.208 20.032 254.947 21.13C253.686 22.228 253.056 23.753 253.056 25.705C253.056 27.3317 253.463 28.7347 254.276 29.914C255.089 31.0527 256.269 32.171 257.814 33.269C259.4 34.367 261.311 35.6887 263.548 37.234C265.5 38.4947 267.249 39.7553 268.794 41.016C270.339 42.2767 271.58 43.7 272.515 45.286C273.45 46.872 273.918 48.763 273.918 50.959C273.918 53.643 273.206 55.8593 271.783 57.608C270.4 59.3567 268.57 60.6783 266.293 61.573C264.016 62.427 261.515 62.854 258.79 62.854C256.269 62.854 254.256 62.61 252.751 62.122C251.246 61.634 249.986 61.1257 248.969 60.597C248.074 60.0277 247.383 59.743 246.895 59.743C246.488 59.743 246.183 59.9667 245.98 60.414C245.817 60.8613 245.675 61.5323 245.553 62.427H244.15C244.231 61.451 244.272 60.3123 244.272 59.011C244.313 57.7097 244.333 56.022 244.333 53.948C244.374 51.8333 244.394 49.1697 244.394 45.957H245.797C245.96 48.641 246.407 51.1623 247.139 53.521C247.912 55.839 249.071 57.7097 250.616 59.133C252.202 60.5563 254.296 61.268 256.899 61.268C258.322 61.268 259.583 61.024 260.681 60.536C261.82 60.0073 262.735 59.2347 263.426 58.218C264.117 57.2013 264.463 55.9407 264.463 54.436C264.463 52.728 264.056 51.2437 263.243 49.983C262.47 48.7223 261.393 47.543 260.01 46.445C258.668 45.347 257.102 44.2287 255.313 43.09C253.402 41.8293 251.612 40.5687 249.945 39.308C248.278 38.0473 246.936 36.6037 245.919 34.977C244.943 33.3503 244.455 31.4187 244.455 29.182C244.455 26.62 245.085 24.5257 246.346 22.899C247.647 21.2317 249.335 20.0117 251.409 19.239C253.524 18.4257 255.76 18.019 258.119 18.019ZM318.63 18.812C318.468 20.886 318.346 22.8787 318.264 24.79C318.224 26.7013 318.203 28.1653 318.203 29.182C318.203 30.0767 318.224 30.9307 318.264 31.744C318.305 32.5573 318.346 33.2487 318.386 33.818H316.983C316.333 30.402 315.499 27.6977 314.482 25.705C313.506 23.7123 312.327 22.3093 310.944 21.496C309.562 20.642 307.935 20.215 306.064 20.215H304.661V55.046C304.661 56.6727 304.824 57.8927 305.149 58.706C305.515 59.5193 306.166 60.0683 307.101 60.353C308.037 60.597 309.399 60.7393 311.188 60.78V62C309.928 61.9593 308.24 61.9187 306.125 61.878C304.051 61.8373 301.876 61.817 299.598 61.817C297.362 61.817 295.247 61.8373 293.254 61.878C291.262 61.9187 289.655 61.9593 288.435 62V60.78C290.265 60.7393 291.648 60.597 292.583 60.353C293.519 60.0683 294.149 59.5193 294.474 58.706C294.8 57.8927 294.962 56.6727 294.962 55.046V20.215H293.62C291.75 20.215 290.123 20.642 288.74 21.496C287.358 22.3093 286.178 23.7123 285.202 25.705C284.226 27.657 283.372 30.3613 282.64 33.818H281.237C281.319 33.2487 281.359 32.5573 281.359 31.744C281.4 30.9307 281.42 30.0767 281.42 29.182C281.42 28.1653 281.38 26.7013 281.298 24.79C281.258 22.8787 281.156 20.886 280.993 18.812C282.864 18.8527 284.897 18.8933 287.093 18.934C289.33 18.9747 291.567 18.995 293.803 18.995C296.04 18.995 298.053 18.995 299.842 18.995C301.672 18.995 303.685 18.995 305.881 18.995C308.118 18.995 310.355 18.9747 312.591 18.934C314.828 18.8933 316.841 18.8527 318.63 18.812ZM409.07 18.751V19.971C408.175 20.337 407.26 21.069 406.325 22.167C405.389 23.2243 404.352 24.851 403.214 27.047L391.685 49.861H388.818L374.544 23.448C373.812 22.0653 373.141 21.1503 372.531 20.703C371.961 20.2557 371.453 20.032 371.006 20.032V18.751C372.104 18.873 373.222 18.9543 374.361 18.995C375.54 19.0357 376.821 19.056 378.204 19.056C379.993 19.056 381.925 19.0357 383.999 18.995C386.073 18.9137 387.964 18.8323 389.672 18.751V20.032C388.655 20.032 387.74 20.1133 386.927 20.276C386.113 20.4387 385.544 20.7437 385.219 21.191C384.893 21.5977 384.975 22.2687 385.463 23.204L395.101 41.748L393.21 44.188L399.493 31.561C400.997 28.633 401.79 26.3353 401.872 24.668C401.994 23.0007 401.587 21.8213 400.652 21.13C399.757 20.398 398.476 20.0117 396.809 19.971V18.751C398.191 18.7917 399.493 18.8323 400.713 18.873C401.933 18.9137 403.173 18.934 404.434 18.934C405.328 18.934 406.162 18.9137 406.935 18.873C407.748 18.8323 408.46 18.7917 409.07 18.751ZM396.016 40.223V55.534C396.016 56.998 396.117 58.096 396.321 58.828C396.565 59.56 397.012 60.048 397.663 60.292C398.313 60.536 399.289 60.6987 400.591 60.78V62C399.493 61.9187 398.069 61.878 396.321 61.878C394.613 61.8373 392.905 61.817 391.197 61.817C389.285 61.817 387.476 61.8373 385.768 61.878C384.06 61.878 382.718 61.9187 381.742 62V60.78C383.043 60.6987 384.019 60.536 384.67 60.292C385.32 60.048 385.747 59.56 385.951 58.828C386.195 58.096 386.317 56.998 386.317 55.534V43.029L391.624 46.811L396.016 40.223Z" fill="#2D2525"/>
<path d="M347.512 16.6895L363.064 56.7535C363.661 58.2895 364.323 59.3561 365.048 59.9535C365.816 60.5081 366.499 60.8068 367.096 60.8495V62.1295C365.816 62.0441 364.301 62.0015 362.552 62.0015C360.845 61.9588 359.117 61.9375 357.368 61.9375C355.405 61.9375 353.549 61.9588 351.8 62.0015C350.051 62.0015 348.664 61.9144 347.64 61.9998V60.8495C349.816 60.7641 351.181 60.4015 351.736 59.7615C352.333 59.0788 352.205 57.6495 351.352 55.4735L340.472 25.7135L341.624 24.0495L331.896 49.3935C330.957 51.7401 330.381 53.6601 330.168 55.1535C329.997 56.6468 330.104 57.7988 330.488 58.6095C330.915 59.4201 331.576 59.9961 332.472 60.3375C333.411 60.6361 334.52 60.8068 335.8 60.8495V62.1295C334.392 62.0441 333.048 62.0015 331.768 62.0015C330.488 61.9588 329.187 61.9375 327.864 61.9375C326.925 61.9375 326.029 61.9588 325.176 62.0015C324.365 62.0015 323.64 62.0441 323 62.1295V60.8495C323.896 60.6788 324.813 60.1028 325.752 59.1215C326.691 58.1401 327.608 56.4761 328.504 54.1295L343.096 16.6895C343.779 16.7321 344.504 16.7535 345.272 16.7535C346.083 16.7535 346.829 16.7321 347.512 16.6895ZM351.992 43.6975V44.9775H332.92L333.56 43.6975H351.992Z" fill="#2D2525"/>
<path d="M346.64 59.8887L347.601 59.8506C348.65 59.8094 349.455 59.703 350.039 59.5479C350.644 59.3871 350.896 59.2051 350.98 59.1074L350.983 59.1035C351.021 59.0606 351.145 58.8634 351.092 58.2666C351.04 57.687 350.832 56.8862 350.421 55.8389L350.413 55.8174L346.815 45.9775H334.278L332.829 49.752L332.824 49.7656C331.898 52.0804 331.355 53.9157 331.158 55.2949C331.002 56.6843 331.124 57.6027 331.384 58.1641C331.688 58.7316 332.146 59.1369 332.806 59.3936C333.63 59.6519 334.634 59.8106 335.833 59.8506L336.8 59.8828V63.1924L335.739 63.1279C334.349 63.0437 333.025 63.002 331.768 63.002H331.751L331.734 63.001C330.466 62.9587 329.176 62.9375 327.864 62.9375C326.941 62.9375 326.061 62.9592 325.226 63.001L325.201 63.002H325.176C324.399 63.002 323.719 63.0429 323.132 63.1211L322 63.2725V60.0225L322.812 59.8672C323.426 59.7503 324.168 59.3313 325.029 58.4307C325.828 57.5959 326.687 56.0832 327.569 53.7734L327.572 53.7666L342.43 15.6465L343.158 15.6914C343.818 15.7326 344.522 15.7539 345.271 15.7539V16.7539L344.704 16.75C344.144 16.742 343.608 16.7215 343.096 16.6895L328.504 54.1299C327.608 56.4765 326.691 58.1407 325.752 59.1221L325.401 59.4707C324.585 60.2408 323.784 60.7002 323 60.8496V62.1299C323.48 62.0659 324.008 62.0258 324.584 62.0098L325.176 62.002C326.029 61.9593 326.926 61.9375 327.864 61.9375L328.852 61.9414C329.836 61.9494 330.808 61.97 331.768 62.002C333.048 62.002 334.392 61.9166 335.8 62.002V60.8496C334.52 60.8069 333.41 60.6365 332.472 60.3379C331.576 59.9966 330.915 59.4207 330.488 58.6104C330.104 57.7998 329.997 56.6474 330.168 55.1543C330.381 53.661 330.957 51.7402 331.896 49.3936L333.591 44.9775H347.515L351.352 55.4736C352.205 57.6493 352.333 59.0789 351.736 59.7617C351.182 60.4017 349.816 60.7643 347.64 60.8496V62.1299C348.408 62.0659 349.38 62.0258 350.556 62.0098L351.8 62.002C353.549 61.9593 355.405 61.9375 357.368 61.9375L358.676 61.9414C359.98 61.9494 361.272 61.97 362.552 62.002C364.301 62.002 365.816 62.0446 367.096 62.1299V60.8496C366.573 60.8122 365.985 60.5787 365.332 60.1494L365.048 59.9541C364.413 59.4314 363.828 58.5491 363.291 57.3076L363.063 56.7539L347.512 16.6895C346.829 16.7321 346.082 16.7539 345.271 16.7539V15.7539C346.065 15.7539 346.791 15.7325 347.449 15.6914L348.18 15.6465L363.996 56.3916L364.212 56.9189C364.71 58.0693 365.21 58.7822 365.667 59.166C366.347 59.6516 366.839 59.829 367.167 59.8525L368.096 59.9189V63.1992L367.029 63.1279C365.778 63.0445 364.286 63.002 362.552 63.002H362.527C360.829 62.9595 359.109 62.9375 357.368 62.9375C355.413 62.9375 353.565 62.9595 351.824 63.002H351.8C350.062 63.002 348.706 63.044 347.723 63.126L346.64 63.2168V59.8887ZM347.047 43.6982H334.082L340.722 26.3984L347.047 43.6982ZM335.537 42.6982H345.617L340.699 29.248L335.537 42.6982Z" fill="#FFFEFD"/>
<path d="M341.178 12.783C342.758 10.5653 346.044 10.5407 347.658 12.7346L357.75 26.4591C359.685 29.0896 357.823 32.8043 354.558 32.8287L334.578 32.9779C331.313 33.0023 329.396 29.3157 331.291 26.6567L341.178 12.783Z" fill="#2D2525"/>
<path d="M341.177 12.783C342.758 10.5653 346.044 10.5407 347.658 12.7346L357.75 26.4594C359.624 29.0076 357.935 32.5734 354.86 32.8161L354.557 32.8292L354.55 31.8292C356.998 31.8109 358.395 29.0242 356.945 27.0514L346.852 13.3276C345.642 11.6821 343.178 11.7005 341.992 13.3638L332.105 27.2369C330.684 29.2311 332.122 31.9964 334.571 31.9784L334.578 32.9783L334.276 32.9699C331.297 32.7796 329.569 29.4579 331.124 26.9092L331.291 26.657L341.177 12.783ZM354.55 31.8292L354.557 32.8292L334.578 32.9783L334.571 31.9784L354.55 31.8292Z" fill="#BFADA8"/>
<path d="M331.582 29V62H330.582V29H331.582ZM358.305 29L358.582 62H357.582V29H358.305Z" fill="#BFADA8"/>
<path d="M333.304 39.1299L338.067 55.6299H328.541L333.304 39.1299Z" fill="#2D2525"/>
<path d="M331.522 29H357.516L358.806 62H329.806L331.522 29Z" fill="#2D2525"/>
<path d="M356.804 54.1299H359.804V61.9599L358.806 62.0002H356.804V54.1299Z" fill="#2D2525"/>
<path d="M329.806 54H330.806V62H329.806V54Z" fill="#2D2525"/>
<path d="M357.304 39.1299L362.067 55.6299H352.541L357.304 39.1299Z" fill="#2D2525"/>
<path d="M339.499 34.1299V33.1299H357.499V34.1299H339.499Z" fill="#6FB39A"/>
<path d="M339.499 55.1298L339.499 54.1298L361.804 54.1299L361.804 55.1299L339.499 55.1298Z" fill="#6FB39A"/>
<path d="M346.499 38.1299C346.499 39.2345 345.604 40.1299 344.499 40.1299C343.394 40.1299 342.499 39.2345 342.499 38.1299C342.499 37.0253 343.394 36.1299 344.499 36.1299C345.604 36.1299 346.499 37.0253 346.499 38.1299Z" fill="#6FB39A"/>
<path d="M346.499 41.1299C346.499 40.0253 345.604 39.1299 344.499 39.1299C343.394 39.1299 342.499 40.0253 342.499 41.1299C342.499 42.2345 343.394 43.1299 344.499 43.1299V44.1299C342.842 44.1299 341.499 42.7867 341.499 41.1299C341.499 39.473 342.842 38.1299 344.499 38.1299C346.156 38.1299 347.499 39.473 347.499 41.1299C347.499 42.7867 346.156 44.1299 344.499 44.1299V43.1299C345.604 43.1299 346.499 42.2345 346.499 41.1299Z" fill="#6FB39A"/>
</svg>
